#tb 0: 1/30
#media_type 0: video
#codec_id 0: rawvideo
#dimensions 0: 320x240
#sar 0: 1/1
0,          0,          0,        1,   115200, 0xf73819e8
0,          1,          1,        1,   115200, 0x082e3788
0,          2,          2,        1,   115200, 0x9fe73790
0,          3,          3,        1,   115200, 0x58f63cc4
0,          4,          4,        1,   115200, 0xd91c3767
0,          5,          5,        1,   115200, 0xac39658c
0,          6,          6,        1,   115200, 0xd6d57406
0,          7,          7,        1,   115200, 0x791b707f
0,          8,          8,        1,   115200, 0x02e05e31
0,          9,          9,        1,   115200, 0x7737ca43
0,         10,         10,        1,   115200, 0xa9b5b019
0,         11,         11,        1,   115200, 0x8b2685be
0,         12,         12,        1,   115200, 0x2f547334
0,         13,         13,        1,   115200, 0x9c2ba0ad
0,         14,         14,        1,   115200, 0x17069da3
0,         15,         15,        1,   115200, 0xbc7fadd1
0,         16,         16,        1,   115200, 0xbf651cce
0,         17,         17,        1,   115200, 0x2e1abc0d
0,         18,         18,        1,   115200, 0xc6c9a945
0,         19,         19,        1,   115200, 0x5234c510
0,         20,         20,        1,   115200, 0x84b5ab26
0,         21,         21,        1,   115200, 0xf01da61e
0,         22,         22,        1,   115200, 0xfb339d74
0,         23,         23,        1,   115200, 0x0973bf98
0,         24,         24,        1,   115200, 0x7467023a
0,         25,         25,        1,   115200, 0x3c8ba9a1
0,         26,         26,        1,   115200, 0xdc699e3e
0,         27,         27,        1,   115200, 0xe57f9d2e
0,         28,         28,        1,   115200, 0x79b18bc4
0,         29,         29,        1,   115200, 0x4c4c98a0
